<?xml version="1.0" standalone="no"?>
<!DOCTYPE svg PUBLIC "-//W3C//DTD SVG 20010904//EN"
 "http://www.w3.org/TR/2001/REC-SVG-20010904/DTD/svg10.dtd">
<svg version="1.0" xmlns="http://www.w3.org/2000/svg"
 width="700.000000pt" height="700.000000pt" viewBox="0 0 700.000000 700.000000"
 preserveAspectRatio="xMidYMid meet">
<metadata>
Created by potrace 1.14, written by Peter Selinger 2001-2017
</metadata>
<g transform="translate(0.000000,700.000000) scale(0.100000,-0.100000)"
fill="#000000" stroke="none">
<path d="M2095 6104 c-41 -22 -83 -63 -103 -99 -14 -25 -18 -73 -22 -285 l-5
-255 -180 -6 c-161 -4 -188 -8 -253 -31 -156 -56 -290 -174 -361 -320 -76
-155 -71 -20 -73 -1828 -3 -1821 -9 -1669 70 -1830 51 -104 177 -230 282 -283
158 -78 -16 -72 2050 -72 2067 0 1889 -6 2050 73 105 51 231 177 282 282 79
161 73 9 71 1830 -3 1805 2 1674 -72 1825 -64 129 -163 228 -299 295 -93 46
-128 52 -317 59 l-180 6 -5 255 c-5 277 -7 286 -67 341 -51 48 -90 61 -163 57
-83 -4 -136 -36 -177 -105 l-28 -48 -3 -252 -4 -253 -434 0 -434 0 0 243 c0
233 -1 244 -24 292 -41 87 -103 125 -201 125 -67 0 -121 -25 -163 -75 -47 -58
-52 -91 -52 -349 l0 -236 -434 0 -435 0 -3 248 c-3 243 -3 249 -29 297 -15 30
-42 62 -68 80 -36 25 -53 30 -114 32 -52 3 -80 -1 -102 -13z m192 -1972 c160
-83 158 -309 -3 -388 -190 -93 -382 101 -290 291 55 112 181 154 293 97z m892
-9 c99 -61 131 -206 68 -302 -39 -58 -96 -93 -163 -99 -151 -13 -273 124 -235
264 40 149 202 216 330 137z m858 9 c160 -83 158 -309 -3 -388 -190 -93 -382
101 -290 291 55 112 181 154 293 97z m892 -9 c99 -61 131 -206 68 -302 -39
-58 -96 -93 -163 -99 -151 -13 -273 124 -235 264 40 149 202 216 330 137z
m-2654 -862 c93 -42 151 -155 126 -247 -44 -163 -233 -224 -354 -116 -119 109
-97 291 46 361 52 26 128 27 182 2z m904 -14 c58 -38 93 -96 99 -161 6 -70
-12 -120 -61 -173 -66 -71 -165 -90 -252 -46 -165 83 -159 315 10 395 59 27
150 21 204 -15z m1636 8 c75 -21 208 -82 272 -126 169 -116 302 -305 353 -504
127 -493 -195 -993 -695 -1080 -158 -27 -316 -12 -463 45 -109 42 -191 93
-278 173 -125 115 -217 268 -260 432 -28 105 -26 333 4 437 45 158 115 279
228 392 119 119 274 204 439 240 89 20 313 15 400 -9z m-2530 -872 c136 -69
162 -248 52 -350 -53 -49 -103 -67 -173 -61 -182 15 -259 241 -125 372 65 63
165 79 246 39z m842 12 c59 -18 123 -80 143 -139 43 -130 -47 -269 -182 -283
-72 -7 -120 9 -175 60 -127 117 -70 326 102 368 46 11 57 10 112 -6z"/>
<path d="M4432 3040 c-131 -35 -225 -92 -323 -198 -184 -199 -221 -496 -92
-745 55 -107 174 -223 284 -275 427 -206 913 73 946 543 8 108 -16 226 -69
334 -52 110 -168 229 -275 284 -146 76 -319 97 -471 57z m237 -121 l31 -31 0
-184 0 -184 115 0 c133 0 175 -13 199 -59 19 -36 20 -71 4 -106 -22 -49 -49
-55 -265 -55 -283 0 -273 -12 -273 325 0 242 6 277 51 309 13 9 42 16 65 16
34 0 49 -6 73 -31z"/>
</g>
</svg>
