<svg width="64" height="64" viewBox="0 0 64 64" fill="none" xmlns="http://www.w3.org/2000/svg">
	<defs>
		<linearGradient id="gradient" x1="32" y1="14" x2="32" y2="54" gradientUnits="userSpaceOnUse">
			<stop stop-color="#6FA8FF" />
			<stop offset="0.45" stop-color="#3A7CFF" />
			<stop offset="0.6" stop-color="#476FFF" />
			<stop offset="1" stop-color="#305DFF" />
		</linearGradient>
	</defs>
	<rect width="64" height="64" rx="8" fill="#fff" />
	<rect x="10" y="14" width="44" height="40" rx="6" fill="url(#gradient)" />
	<circle cx="20" cy="28" r="2" fill="#fff" />
	<circle cx="20" cy="36" r="2" fill="#fff" />
	<circle cx="28" cy="28" r="2" fill="#fff" />
	<circle cx="28" cy="36" r="2" fill="#fff" />
	<circle cx="36" cy="28" r="2" fill="#fff" />
	<circle cx="44" cy="28" r="2" fill="#fff" />
	<circle cx="20" cy="44" r="2" fill="#fff" />
	<circle cx="28" cy="44" r="2" fill="#fff" />
	<circle cx="42" cy="42" r="7" stroke="#fff" stroke-width="2" />
	<path d="M45 42H42V38" stroke="#fff" stroke-width="2" stroke-linecap="round" stroke-linejoin="round" />
	<rect x="42" y="8" width="4" height="12" rx="2" fill="#5D99FF" />
	<rect x="42" y="8" width="4" height="12" rx="2" fill="#5D99FF" />
	<rect x="18" y="8" width="4" height="12" rx="2" fill="#5D99FF" />
	<rect x="18" y="8" width="4" height="12" rx="2" fill="#5D99FF" />
	<rect x="30" y="8" width="4" height="12" rx="2" fill="#5D99FF" />
	<rect x="30" y="8" width="4" height="12" rx="2" fill="#5D99FF" />
</svg>