<svg width="78" height="22" viewBox="0 0 78 22" fill="none" xmlns="http://www.w3.org/2000/svg">
	<path d="M11.3564 15.2908C9.73801 14.2596 9.34242 12.0393 10.4813 10.4864C11.2844 9.3945 11.3564 7.92648 10.6611 6.76177L6.76506 0.513611L7.71209 2.95221C6.29754 4.25038 5.30256 6.00957 4.94293 7.98714C2.42551 8.4967 0.543443 10.8261 0.699284 13.5559C0.855124 16.4191 3.25266 18.6151 6.08176 18.6151H16.547L11.3564 15.2908Z" fill="#FAFAFA" />
	<path d="M31.3159 11.7967C31.196 8.37536 28.4388 5.58492 25.0583 5.4636C23.9195 5.4272 22.8526 5.68198 21.9055 6.15514C20.5629 2.90367 17.3862 0.610657 13.694 0.610657C12.0756 0.610657 10.5652 1.04742 9.2585 1.81176L14.1015 5.08749C15.588 6.09448 16.0076 8.13272 15.0246 9.66139L14.8088 10.0011C14.1135 11.093 14.1015 12.4882 14.7848 13.5801L18.9805 20.2044L18.501 18.6272H24.8185C28.4868 18.6151 31.4477 15.5335 31.3159 11.7967Z" fill="#FAFAFA" />
	<path d="M43.6315 4.53701C44.7329 4.53701 45.6419 4.67265 46.3587 4.94395C47.0813 5.21524 47.6174 5.62808 47.9671 6.18246C48.3225 6.73684 48.5003 7.44161 48.5003 8.29677C48.5003 8.93372 48.3837 9.47631 48.1506 9.92453C47.9175 10.3728 47.6116 10.7443 47.2328 11.0392C46.854 11.3341 46.449 11.57 46.0178 11.7469L49.6453 17.4706H47.2765L44.1909 12.2865H42.1368V17.4706H40.0389V4.53701H43.6315ZM43.4917 6.30631H42.1368V10.5349H43.5878C44.561 10.5349 45.2661 10.3521 45.7031 9.98645C46.146 9.6208 46.3675 9.08116 46.3675 8.36754C46.3675 7.61854 46.1314 7.08775 45.6594 6.77517C45.1932 6.4626 44.4706 6.30631 43.4917 6.30631Z" fill="#FAFAFA" />
	<path d="M53.3166 7.67752V17.4706H51.2624V7.67752H53.3166ZM52.3026 3.9266C52.6173 3.9266 52.8883 4.01211 53.1155 4.18315C53.3486 4.35418 53.4652 4.64906 53.4652 5.0678C53.4652 5.48063 53.3486 5.77552 53.1155 5.95245C52.8883 6.12348 52.6173 6.209 52.3026 6.209C51.9763 6.209 51.6995 6.12348 51.4722 5.95245C51.2508 5.77552 51.1401 5.48063 51.1401 5.0678C51.1401 4.64906 51.2508 4.35418 51.4722 4.18315C51.6995 4.01211 51.9763 3.9266 52.3026 3.9266Z" fill="#FAFAFA" />
	<path d="M61.0961 9.26104H58.7448V17.4706H56.6906V9.26104H55.1085V8.26139L56.6906 7.65098V6.9698C56.6906 6.13822 56.8188 5.47769 57.0752 4.98818C57.3375 4.49867 57.7104 4.14776 58.1941 3.93544C58.6836 3.71723 59.2663 3.60812 59.9423 3.60812C60.3852 3.60812 60.7902 3.64646 61.1573 3.72313C61.5244 3.7939 61.8333 3.87647 62.0838 3.97083L61.5506 5.54551C61.3525 5.48063 61.1311 5.42166 60.8863 5.36858C60.6416 5.3096 60.3793 5.28011 60.0996 5.28011C59.6334 5.28011 59.2896 5.42755 59.0682 5.72244C58.8526 6.01732 58.7448 6.44785 58.7448 7.01403V7.67752H61.0961V9.26104Z" fill="#FAFAFA" />
	<path d="M66.3495 15.9667C66.6175 15.9667 66.8827 15.9431 67.1449 15.8959C67.4071 15.8428 67.646 15.7809 67.8617 15.7101V17.2848C67.6344 17.3851 67.3401 17.4706 66.9788 17.5414C66.6175 17.6121 66.2417 17.6475 65.8512 17.6475C65.3035 17.6475 64.811 17.5561 64.374 17.3733C63.9369 17.1846 63.5902 16.8631 63.3338 16.409C63.0774 15.9549 62.9492 15.3268 62.9492 14.5247V9.26104H61.6293V8.33216L63.0454 7.5979L63.7184 5.50128H65.0121V7.67752H67.783V9.26104H65.0121V14.4982C65.0121 14.9936 65.1345 15.3622 65.3792 15.604C65.624 15.8458 65.9474 15.9667 66.3495 15.9667Z" fill="#FAFAFA" />
	<path d="M68.3686 7.67752H70.6063L72.5906 13.2685C72.678 13.5221 72.7566 13.7728 72.8266 14.0205C72.9023 14.2623 72.9664 14.5011 73.0189 14.737C73.0771 14.9729 73.1238 15.2088 73.1587 15.4447H73.2112C73.2695 15.1381 73.351 14.796 73.4559 14.4186C73.5666 14.0352 73.689 13.6519 73.8231 13.2685L75.7286 7.67752H77.9401L73.7881 18.8153C73.5492 19.4522 73.2549 19.9948 72.9052 20.443C72.5614 20.8971 72.1535 21.2392 71.6815 21.4692C71.2095 21.7051 70.6705 21.8231 70.0644 21.8231C69.773 21.8231 69.5195 21.8054 69.3039 21.77C69.0883 21.7405 68.9048 21.7081 68.7532 21.6727V20.0095C68.8756 20.039 69.03 20.0656 69.2165 20.0892C69.403 20.1128 69.5953 20.1245 69.7934 20.1245C70.1606 20.1245 70.4781 20.0508 70.7462 19.9034C71.0143 19.7559 71.2415 19.5466 71.428 19.2753C71.6145 19.0099 71.7689 18.7062 71.8913 18.3641L72.2322 17.4441L68.3686 7.67752Z" fill="#FAFAFA" />
</svg>